<?xml version="1.0" encoding="utf-8"?>
<!-- Generator: Adobe Illustrator 21.0.0, SVG Export Plug-In . SVG Version: 6.00 Build 0)  -->
<svg version="1.1"
	 id="svg2" inkscape:export-filename="C:\Users\Juan\Desktop\frustum\diagram.png" inkscape:export-xdpi="300" inkscape:export-ydpi="300" inkscape:version="0.91 r13725" sodipodi:docname="diagram01.svg" xmlns:cc="http://creativecommons.org/ns#" xmlns:dc="http://purl.org/dc/elements/1.1/" xmlns:inkscape="http://www.inkscape.org/namespaces/inkscape" xmlns:rdf="http://www.w3.org/1999/02/22-rdf-syntax-ns#" xmlns:sodipodi="http://sodipodi.sourceforge.net/DTD/sodipodi-0.dtd" xmlns:svg="http://www.w3.org/2000/svg"
	 xmlns="http://www.w3.org/2000/svg" xmlns:xlink="http://www.w3.org/1999/xlink" x="0px" y="0px" viewBox="0 0 95.8 90.7"
	 style="enable-background:new 0 0 95.8 90.7;" xml:space="preserve">
<style type="text/css">
	.st0{fill:#92A1FF;stroke:#000000;stroke-width:0.9969;}
	.st1{fill:none;stroke:#000000;stroke-width:0.9943;}
	.st2{fill:#92A1FF;stroke:#000000;}
	.st3{fill:none;stroke:#000000;}
	.st4{fill:#92A1FF;}
	.st5{font-family:sans-serif;}
	.st6{font-size:5px;}
	.st7{fill:none;stroke:#000000;stroke-dasharray:1;}
</style>
<sodipodi:namedview  bordercolor="#666666" borderopacity="1.0" fit-margin-bottom="1" fit-margin-left="1" fit-margin-right="1" fit-margin-top="1" id="base" inkscape:current-layer="layer1" inkscape:cx="59.157863" inkscape:cy="20.661766" inkscape:document-units="px" inkscape:pageopacity="0.0" inkscape:pageshadow="2" inkscape:window-height="1017" inkscape:window-maximized="1" inkscape:window-width="1920" inkscape:window-x="1016" inkscape:window-y="-8" inkscape:zoom="8" pagecolor="#ffffff" showgrid="false" units="px">
	</sodipodi:namedview>
<g id="layer1" transform="translate(3.3025093,-959.36212)" inkscape:groupmode="layer" inkscape:label="Layer 1">
	<ellipse id="path3336" class="st0" cx="41.9" cy="1024.6" rx="14.9" ry="5"/>
	<ellipse id="path3336-5" class="st1" cx="41.9" cy="985.5" rx="26" ry="8"/>
	<ellipse id="path3336-1" class="st2" cx="41.9" cy="1006.4" rx="20" ry="6.8"/>
	<path id="path4159" inkscape:connector-curvature="0" sodipodi:nodetypes="cc" class="st3" d="M56.7,1024.8l11.1-38.5"/>
	<path id="path4161" inkscape:connector-curvature="0" sodipodi:nodetypes="cc" class="st3" d="M27,1024.8l-11.1-38.5"/>
	<path id="path4163" inkscape:connector-curvature="0" class="st4" d="M56.5,1022.9c-0.6-0.7-2-1.5-3.6-2
		c-7.9-2.8-20.7-1.9-25.3,1.8c-0.4,0.3-0.7,0.6-0.8,0.5c-0.1-0.1-3.8-14-3.8-14s0.4,0.3,0.9,0.6c1.8,1.3,6.1,2.6,10.1,3.3
		c9.2,1.4,19.6,0.3,25.3-2.8c0.9-0.5,1.6-0.8,1.6-0.8c0,0.1-3.8,13.9-3.8,13.9C56.9,1023.4,56.7,1023.2,56.5,1022.9L56.5,1022.9z"/>
	<path id="path4167" inkscape:connector-curvature="0" sodipodi:nodetypes="ccccccc" class="st3" d="M27.1,1028v6h5.8l2,3l2-3h5.8
		v-2.5"/>
	<path id="path4171" inkscape:connector-curvature="0" sodipodi:nodetypes="ccccccc" class="st3" d="M58.9,1025.5h15v-17.9l3-2l-3-2
		v-17.9h-4.4"/>
	<path id="path4173" inkscape:connector-curvature="0" sodipodi:nodetypes="ccccccc" class="st3" d="M24.5,1025.5h-9.1v-7.4l-3-2
		l3-2v-7.4h4"/>
	<text transform="matrix(1 0 0 1 4.7639 1014.6757)" class="st5 st6">Fill</text>
	<text transform="matrix(1 0 0 1 -3.3025 1020.9257)" class="st5 st6">Height</text>
	<text transform="matrix(1 0 0 1 78.02 1007.4301)" class="st5 st6">Height</text>
	<text transform="matrix(1 0 0 1 27.1105 1042.4547)" class="st5 st6">Bottom</text>
	<text transform="matrix(1 0 0 1 27.1105 1048.4547)" class="st5 st6">Radius</text>
</g>
<path id="path4167_1_" inkscape:connector-curvature="0" sodipodi:nodetypes="ccccccc" class="st3" d="M45.8,16.7V9.2l-11.7,0l-2-3
	l-2,3l-10.8,0v13"/>
<text transform="matrix(1 0 0 1 21.539 4.2912)" class="st5 st6">Top Radius</text>
<path id="path4167_3_" inkscape:connector-curvature="0" sodipodi:nodetypes="ccccccc" class="st7" d="M45.8,26.9V16.7"/>
</svg>
